<?xml version="1.0" encoding="UTF-8" standalone="no"?>
<svg
   xmlns:dc="http://purl.org/dc/elements/1.1/"
   xmlns:cc="http://creativecommons.org/ns#"
   xmlns:rdf="http://www.w3.org/1999/02/22-rdf-syntax-ns#"
   xmlns:svg="http://www.w3.org/2000/svg"
   xmlns="http://www.w3.org/2000/svg"
   xmlns:sodipodi="http://sodipodi.sourceforge.net/DTD/sodipodi-0.dtd"
   xmlns:inkscape="http://www.inkscape.org/namespaces/inkscape"
   width="1536"
   height="1536"
   viewBox="0 0 1536 1536"
   version="1.1"
   id="svg4487"
   sodipodi:docname="info-circle.svg"
   inkscape:version="0.92.1 r15371">
  <metadata
     id="metadata4493">
    <rdf:RDF>
      <cc:Work
         rdf:about="">
        <dc:format>image/svg+xml</dc:format>
        <dc:type
           rdf:resource="http://purl.org/dc/dcmitype/StillImage" />
        <dc:title></dc:title>
      </cc:Work>
    </rdf:RDF>
  </metadata>
  <defs
     id="defs4491" />
  <sodipodi:namedview
     pagecolor="#ffffff"
     bordercolor="#666666"
     borderopacity="1"
     objecttolerance="10"
     gridtolerance="10"
     guidetolerance="10"
     inkscape:pageopacity="0"
     inkscape:pageshadow="2"
     inkscape:window-width="1862"
     inkscape:window-height="954"
     id="namedview4489"
     showgrid="false"
     fit-margin-top="0"
     fit-margin-left="0"
     fit-margin-right="0"
     fit-margin-bottom="0"
     inkscape:zoom="0.45089286"
     inkscape:cx="768"
     inkscape:cy="832.82715"
     inkscape:window-x="17"
     inkscape:window-y="13"
     inkscape:window-maximized="0"
     inkscape:current-layer="svg4487" />
  <path
     d="m 1024,1248 v -160 q 0,-14 -9,-23 -9,-9 -23,-9 H 896 V 544 q 0,-14 -9,-23 -9,-9 -23,-9 H 544 q -14,0 -23,9 -9,9 -9,23 v 160 q 0,14 9,23 9,9 23,9 h 96 v 320 h -96 q -14,0 -23,9 -9,9 -9,23 v 160 q 0,14 9,23 9,9 23,9 h 448 q 14,0 23,-9 9,-9 9,-23 z M 896,352 V 192 q 0,-14 -9,-23 -9,-9 -23,-9 H 672 q -14,0 -23,9 -9,9 -9,23 v 160 q 0,14 9,23 9,9 23,9 h 192 q 14,0 23,-9 9,-9 9,-23 z m 640,416 q 0,209 -103,385.5 Q 1330,1330 1153.5,1433 977,1536 768,1536 559,1536 382.5,1433 206,1330 103,1153.5 0,977 0,768 0,559 103,382.5 206,206 382.5,103 559,0 768,0 977,0 1153.5,103 1330,206 1433,382.5 1536,559 1536,768 Z"
     id="path4485"
     inkscape:connector-curvature="0" />
</svg>
