<?xml version="1.0" encoding="UTF-8" standalone="no"?>
<svg
   xmlns:dc="http://purl.org/dc/elements/1.1/"
   xmlns:cc="http://creativecommons.org/ns#"
   xmlns:rdf="http://www.w3.org/1999/02/22-rdf-syntax-ns#"
   xmlns:svg="http://www.w3.org/2000/svg"
   xmlns="http://www.w3.org/2000/svg"
   xmlns:sodipodi="http://sodipodi.sourceforge.net/DTD/sodipodi-0.dtd"
   xmlns:inkscape="http://www.inkscape.org/namespaces/inkscape"
   width="1536"
   height="1536"
   viewBox="0 0 1536 1536"
   version="1.1"
   id="svg4487"
   sodipodi:docname="question-circle.svg"
   inkscape:version="0.92.1 r15371">
  <metadata
     id="metadata4493">
    <rdf:RDF>
      <cc:Work
         rdf:about="">
        <dc:format>image/svg+xml</dc:format>
        <dc:type
           rdf:resource="http://purl.org/dc/dcmitype/StillImage" />
        <dc:title></dc:title>
      </cc:Work>
    </rdf:RDF>
  </metadata>
  <defs
     id="defs4491" />
  <sodipodi:namedview
     pagecolor="#ffffff"
     bordercolor="#666666"
     borderopacity="1"
     objecttolerance="10"
     gridtolerance="10"
     guidetolerance="10"
     inkscape:pageopacity="0"
     inkscape:pageshadow="2"
     inkscape:window-width="1795"
     inkscape:window-height="905"
     id="namedview4489"
     showgrid="false"
     fit-margin-top="0"
     fit-margin-left="0"
     fit-margin-right="0"
     fit-margin-bottom="0"
     inkscape:zoom="0.45089286"
     inkscape:cx="768"
     inkscape:cy="768"
     inkscape:window-x="8"
     inkscape:window-y="17"
     inkscape:window-maximized="0"
     inkscape:current-layer="svg4487" />
  <path
     d="m 896,1248 v -192 q 0,-14 -9,-23 -9,-9 -23,-9 H 672 q -14,0 -23,9 -9,9 -9,23 v 192 q 0,14 9,23 9,9 23,9 h 192 q 14,0 23,-9 9,-9 9,-23 z m 256,-672 q 0,-88 -55.5,-163 Q 1041,338 958,297 875,256 788,256 q -243,0 -371,213 -15,24 8,42 l 132,100 q 7,6 19,6 16,0 25,-12 53,-68 86,-92 34,-24 86,-24 48,0 85.5,26 37.5,26 37.5,59 0,38 -20,61 -20,23 -68,45 -63,28 -115.5,86.5 Q 640,825 640,892 v 36 q 0,14 9,23 9,9 23,9 h 192 q 14,0 23,-9 9,-9 9,-23 0,-19 21.5,-49.5 Q 939,848 972,829 q 32,-18 49,-28.5 17,-10.5 46,-35 29,-24.5 44.5,-48 15.5,-23.5 28,-60.5 12.5,-37 12.5,-81 z m 384,192 q 0,209 -103,385.5 Q 1330,1330 1153.5,1433 977,1536 768,1536 559,1536 382.5,1433 206,1330 103,1153.5 0,977 0,768 0,559 103,382.5 206,206 382.5,103 559,0 768,0 977,0 1153.5,103 1330,206 1433,382.5 1536,559 1536,768 Z"
     id="path4485"
     inkscape:connector-curvature="0" />
</svg>
